<svg width="512" height="512" viewBox="0 0 512 512" fill="none" xmlns="http://www.w3.org/2000/svg">
<path d="M0 64C0 28.6538 28.6538 0 64 0H448C483.346 0 512 28.6538 512 64V448C512 483.346 483.346 512 448 512H64C28.6538 512 0 483.346 0 448V64Z" fill="black"/>
<path d="M200.187 341.244C191.029 341.244 182.706 338.874 175.218 334.133C167.729 329.393 161.75 322.281 157.278 312.8C152.807 303.319 150.571 291.547 150.571 277.487C150.571 262.888 152.888 250.874 157.521 241.446C162.154 232.019 168.214 225.042 175.703 220.517C183.245 215.992 191.352 213.729 200.026 213.729C206.544 213.729 212.12 214.861 216.753 217.123C221.386 219.332 225.211 222.187 228.228 225.689C231.245 229.191 233.534 232.827 235.097 236.598H235.905V173.972H275.42V339.467H236.309V319.345H235.097C233.426 323.17 231.056 326.753 227.985 330.093C224.915 333.433 221.063 336.127 216.43 338.174C211.851 340.221 206.437 341.244 200.187 341.244ZM213.925 310.457C218.719 310.457 222.814 309.11 226.208 306.416C229.602 303.669 232.214 299.817 234.046 294.861C235.878 289.904 236.793 284.086 236.793 277.406C236.793 270.618 235.878 264.773 234.046 259.871C232.268 254.968 229.655 251.197 226.208 248.558C222.814 245.918 218.719 244.598 213.925 244.598C209.022 244.598 204.874 245.945 201.48 248.638C198.086 251.332 195.501 255.13 193.723 260.032C191.999 264.935 191.137 270.726 191.137 277.406C191.137 284.086 192.026 289.904 193.804 294.861C195.581 299.817 198.14 303.669 201.48 306.416C204.874 309.11 209.022 310.457 213.925 310.457Z" fill="white"/>
<path d="M367.913 166.214L314.58 364.356H280.883L334.217 166.214H367.913Z" fill="#333333"/>
</svg>
